/* XPM */
static char *_fdfc10a625743cafcaf3653b7404f89qXBm4gMHpoKJ9hiU[] = {
/* columns rows colors chars-per-pixel */
"224 32 10 1 ",
"  c None",
". c #211F30",
"X c #076029",
"o c #9C1B4D",
"O c #CC3048",
"+ c #E44A4A",
"@ c #28860F",
"# c #72A11D",
"$ c #A4CC42",
"% c white",
/* pixels */
"                                                                                                                                                                                                                                ",
"                                                                                                                                                                                                                                ",
"                                                                                                                                                                                                                                ",
"                                                                                                                                                                                                                                ",
"                                                                                                                                                                                                                                ",
"       %%%   %%%%% %%%                 %%%   %%%%% %%%                                                                                                                                                                          ",
"      %%%%% %%%%%%%%%%%               %%%%% %%%%%%%%%%%               ...   .....   ...                                                                                                                                         ",
"      %%%%%%%%%%%%%%%%%               %%%%%%%%%%%%%%%%%              .+++. .#####. .###.                                                                                                             ...   ......   ....        ",
"       %%%%%%%%%%%%%%%%%               %%%%%%%%%%%%%%%%%             .OOOo..............            ...   .......   .....                                           ...   .......   .....           .+++. .######. .####.       ",
"      %%%%%%%%%%%%%%%%%%              %%%%%%%%%%%%%%%%%%              ..o.oO+++O+OO+O+++.          .+++. .#######. .#####.         ...   ........   ......         .+++. .#######. .#####.          .OOOo................       ",
"      %%%%%%%%%%%%%%%%%%              %%%%%%%%%%%%%%%%%%             .Oo....oooOoOOoOoo..          .OOOo..................        .+++. .########. .######.        .OOOo..................           ..o.oO+++O+OOOO+O+++.      ",
"      %%%%%%%%%%%%%%%%%%              %%%%%%%%%%%%%%%%%%             .+O.ooOOOOOOOOOOOOO.           ..o.oO+++O+OOOOOO+O+++.       .OOOo....................         ..o.oO+++O+OOOOOO+O+++.         .Oo....oooOoOOOOoOoo..      ",
"      %%%%%%%%%%%%%%%%%%%             %%%%%%%%%%%%%%%%%%%            .+O.................          .Oo....oooOoOOOOOOoOoo..        ..o.oO+++O+OOOOOOOO+O+++.       .Oo....oooOoOOOOOOoOoo..         .+O.ooOOOOOOOOOOOOOOO.      ",
"       %%%%%%%%%%%%%%%%%%              %%%%%%%%%%%%%%%%%%            .+..@@@@@@@@@@@@@@@@.         .+O.ooOOOOOOOOOOOOOOOOO.       .Oo....oooOoOOOOOOOOoOoo..       .+O.ooOOOOOOOOOOOOOOOOO.         .+O...................      ",
"        %%%%%%%%%%%%%%%%%               %%%%%%%%%%%%%%%%%             ..@####XXXXX#XXXXX#.         .+O.....................       .+O.ooOOOOOOOOOOOOOOOOOOO.       .+O.....................         .+..@@@@@@@@@@@@@@@@@@.     ",
"        %%%%%%%%%%%%%%%%%               %%%%%%%%%%%%%%%%%              .#################.         .+..@@@@XXXXXXX@XXXXXXX@.      .+O.......................       .+..@@@@XXXXXXX@XXXXXXX@.         ..@####XXXXXX#XXXXXX#.     ",
"        %%%%%%%%%%%%%%%%%               %%%%%%%%%%%%%%%%%              .#####XXXXXXXXXX##.          ..@####################.      .+..@@@@XXXXXXXX@XXXXXXXX@.       ..@####################.          .###################.     ",
"        %%%%%%%%%%%%%%%%%               %%%%%%%%%%%%%%%%%              .####@##########@#.           .#####XXXXXXXXXXXXXX##.       ..@######################.        .#####XXXXXXXXXXXXXX##.          .#####XXXXXXXXXXXX##.     ",
"        %%%%%%%%%%%%%%%%%               %%%%%%%%%%%%%%%%%              .###@...#@@@@#####.           .####@##############@#.        .#####XXXXXXXXXXXXXXXX##.        .####@##############@#.          .####@############@#.     ",
"         %%%%%%%%%%%%%%%%%               %%%%%%%%%%%%%%%%%              .@####@.#######@.@.          .###@...##@@@@@@@#####.        .###@...##############@#.        .###@...##@@@@@@@#####.          .###@...##@@@@@#####.     ",
"          %%%%%%%%%%%%%%%%                %%%%%%%%%%%%%%%%               ..###@.#####@@.@@.           .@####@.###########@.@.        .@####@.#@@@@@@@@@###@.@.        .@####@.###########@.@.          .@####@.#########@.@.    ",
"           %%%%%%%%%%%%%%%                 %%%%%%%%%%%%%%%                .###@.#####..@@@.            ..###@.#########@@.@@.         ..###@.###########@@.@@.         ..###@.#########@@.@@.           ..###@.#######@@.@@.    ",
"           %%%%%%%%%%%%%%                  %%%%%%%%%%%%%%                 .#@@.$$$$$##.@@.              .###@.#########..@@@.          .#@@.$$$$$$$$$$$#..@@.           .###@.#########..@@@.            .###@.#######..@@@.    ",
"           %%%%%%%%%%%%%                   %%%%%%%%%%%%%                  .@..$$$$$$$#...               .#@@.$$$$$$$$$##.@@.           .@..$$$$$$$$$$$$$#...            .#@@.$$$$$$$$$##.@@.             .#@@.$$$$$$$##.@@.     ",
"           %%%%%%%%%%%                     %%%%%%%%%%%                    .@##$$$$$$$#.                 .@..$$$$$$$$$$$#...            .@#####.#$$$$$$$###.             .@..$$$$$$$$$$$#...              .@..$$$$$$$$$#...      ",
"           %%%%%%%%%%%                     %%%%%%%%%%%                    .@##$$$$$$$#.                 .@####.#$$$$$$###.              .@@###.......@@###.             .@####.#$$$$$$###.               .@##$$$$$$$$$#.        ",
"           %%%%%%%%%%%                     %%%%%%%%%%%                    .@##$$$$$$$#.                  .@@##.......@@##.               .@###.      .@###.              .@@##.......@@##.               .@####.#$$$$###.       ",
"           %%%%%%%%%%%                     %%%%%%%%%%%                    .@####.#$$###.                  .@##.      .@##.                ....        ....                .@##.      .@##.                .@@##.....@@##.       ",
"           %%%%%%%%%%%%                    %%%%%%%%%%%%                    .@@##...@@##.                   ...        ...                                                  ...        ...                  .@##.    .@##.       ",
"            %%%%%%%%%%%                     %%%%%%%%%%%                     .@##.  .@##.                                                                                                                    ...      ...        ",
"             %%%%  %%%%                      %%%%  %%%%                      ...    ...                                                                                                                                         ",
"              %%    %%                        %%    %%                                                                                                                                                                          "
};
