/* XPM */
static char *fb0c1d86196340d4d29eb6568e1169c4GHoflIgL0pMMW7Pl[] = {
/* columns rows colors chars-per-pixel */
"384 32 10 1 ",
"  c None",
". c #211F30",
"X c #076029",
"o c #9C1B4D",
"O c #CC3048",
"+ c #E44A4A",
"@ c #28860F",
"# c #72A11D",
"$ c #A4CC42",
"% c white",
/* pixels */
"                                                                                                                                                                                                                                                                                                                                                                                                ",
"                                                                                                                                                                                                                                                                                                                                                                                                ",
"                                                                                                                                                                                                                                                                                                                                                                                                ",
"                                                                                                                                                                                                                                                                                                                                                                                                ",
"                                     ...   ......   ....             ...   ......   ....                                                                                                                                             ...   ......   ....             ...   ......   ....                                                                                                        ",
"     ...   ......   ....            .+++. .######. .####.           .+++. .######. .####.                                                                                                            ...   ......   ....            .+++. .######. .####.           .+++. .######. .####.                                                                                                       ",
"    .+++. .######. .####.           .OOOo................           .OOOo................            ...   ......   ....                                                                            .+++. .######. .####.           .OOOo................           .OOOo................            ...   ......   ....                                                                        ",
"    .OOOo................            ..o.oO+++O+OOOO+O+++.           ..o.oO+++O+OOOO+O+++.          .+++. .######. .####.                                                                           .OOOo................            ..o.oO+++O+OOOO+O+++.           ..o.oO+++O+OOOO+O+++.          .+++. .######. .####.                                                                       ",
"     ..o.oO+++O+OOOO+O+++.          .Oo....oooOoOOOOoOoo..          .Oo....oooOoOOOOoOoo..          .OOOo................           ...   .......   .....           ...   .......   .....            ..o.oO+++O+OOOO+O+++.          .Oo....oooOoOOOOoOoo..          .Oo....oooOoOOOOoOoo..          .OOOo................           ...   .......   .....           ...   .......   .....       ",
"    .Oo....oooOoOOOOoOoo..          .+O.ooOOOOOOOOOOOOOOO.          .+O.ooOOOOOOOOOOOOOOO.           ..o.oO+++O+OOOO+O+++.         .+++. .#######. .#####.         .+++. .#######. .#####.          .Oo....oooOoOOOOoOoo..          .+O.ooOOOOOOOOOOOOOOO.          .+O.ooOOOOOOOOOOOOOOO.           ..o.oO+++O+OOOO+O+++.         .+++. .#######. .#####.         .+++. .#######. .#####.      ",
"    .+O.ooOOOOOOOOOOOOOOO.          .+O...................          .+O...................          .Oo....oooOoOOOOoOoo..         .OOOo..................         .OOOo..................          .+O.ooOOOOOOOOOOOOOOO.          .+O...................          .+O...................          .Oo....oooOoOOOOoOoo..         .OOOo..................         .OOOo..................      ",
"    .+O...................          .+..@@@@X%%%%X@X%%%%X@.         .+..@@@@X%%%%X@X%%%%X@.         .+O.ooOOOOOOOOOOOOOOO.          ..o.oO+++O+OOOOOO+O+++.         ..o.oO+++O+OOOOOO+O+++.         .+O...................          .+..@@@@X%%%%X@X%%%%X@.         .+..@@@@X%%%%X@X%%%%X@.         .+O.ooOOOOOOOOOOOOOOO.          ..o.oO+++O+OOOOOO+O+++.         ..o.oO+++O+OOOOOO+O+++.     ",
"    .+..@@@@X%%%%X@X%%%%X@.          ..@####@XXXX@#@XXXX@#.          ..@####@XXXX@#@XXXX@#.         .+O...................         .Oo....oooOoOOOOOOoOoo..        .Oo....oooOoOOOOOOoOoo..         .+..@@@@X%%%%X@X%%%%X@.          ..@####@XXXX@#@XXXX@#.          ..@####@XXXX@#@XXXX@#.         .+O...................         .Oo....oooOoOOOOOOoOoo..        .Oo....oooOoOOOOOOoOoo..     ",
"     ..@####@XXXX@#@XXXX@#.           .###################.           .###################.         .+..@@@@X%%%%X@X%%%%X@.        .+O.ooOOOOOOOOOOOOOOOOO.        .+O.ooOOOOOOOOOOOOOOOOO.          ..@####@XXXX@#@XXXX@#.           .###################.           .###################.         .+..@@@@X%%%%X@X%%%%X@.        .+O.ooOOOOOOOOOOOOOOOOO.        .+O.ooOOOOOOOOOOOOOOOOO.     ",
"      .###################.           .#####XXXXXXXXXXXX##.           .#####XXXXXXXXXXXX##.          ..@####@XXXX@#@XXXX@#.        .+O.....................        .+O.....................           .###################.           .#####XXXXXXXXXXXX##.           .#####XXXXXXXXXXXX##.          ..@####@XXXX@#@XXXX@#.        .+O.....................        .+O.....................     ",
"      .#####XXXXXXXXXXXX##.           .####@############@#.           .####@############@#.           .###################.        .+..@@@@X%%%%%X@X%%%%%X@.       .+..@@@@X%%%%%X@X%%%%%X@.          .#####XXXXXXXXXXXX##.           .####@############@#.           .####@############@#.           .###################.        .+..@@@@X%%%%%X@X%%%%%X@.       .+..@@@@X%%%%%X@X%%%%%X@.    ",
"      .####@############@#.           .#########@@@@@#####.           .#########@@@@@#####.           .#####XXXXXXXXXXXX##.         ..@####@XXXXX@#@XXXXX@#.        ..@####@XXXXX@#@XXXXX@#.          .####@############@#.           .#########@@@@@#####.           .#########@@@@@#####.           .#####XXXXXXXXXXXX##.         ..@####@XXXXX@#@XXXXX@#.        ..@####@XXXXX@#@XXXXX@#.    ",
"      .#########@@@@@#####.            .@###############@.             .@###############@.            .####@############@#.          .#####################.         .#####################.          .#########@@@@@#####.           ...@##############@..           ...@##############@..           .####@############@#.          .#####################.         .#####################.    ",
"       .@###############@.              .#############@@.               .#############@@.             .#########@@@@@#####.          .#####XXXXXXXXXXXXXX##.         .#####XXXXXXXXXXXXXX##.           ..@##############@.           .@##.@###########@@.@@.         .@##.@###########@@.@@.          .#########@@@@@#####.          .#####XXXXXXXXXXXXXX##.         .#####XXXXXXXXXXXXXX##.    ",
"        .@############@@.               .@##@.########..                .@##@.########..               .@###############@.           .####@##############@#.         .####@##############@#.           .@.@###########@@..           .@###############..@@@.         .@###############..@@@.           ..@##############@.           .####@##############@#.         .####@##############@#.    ",
"        .###@#########..                 .####.$$$$$$##.                 .####.$$$$$$##.                .@############@@.            .#########@@@@@@@#####.         .#########@@@@@@@#####.          .###############..@@.           .@@#####$$$$$$$##.@@.           .@@#####$$$$$$$##.@@.            .@.@###########@@..           .#########@@@@@@@#####.         .#########@@@@@@@#####.    ",
"        .###.#$$$$$$$##.                 .@@@@.$$$$$$$#.                 .@@@@.$$$$$$$#.                .###@#########..              .@#################@.           .@#################@.          .@#######$$$$$$$##.@@@.           ....##$$$$$$$$$#...             ....##$$$$$$$$$#...            .###############..@@.           .@#################@.           .@#################@.     ",
"        .@@@.$$$$$$$$$#.                 .X...$$$$$$$$#.                 .X...$$$$$$$$#.                .###.#$$$$$$$##.               .@@#############@@.             .@@#############@@.           .@@@@.##$$$$$$$$$#.@@@.             .@##$$$$$$$$$#.                 .@##$$$$$$$$$#.             .@#######$$$$$$$##.@@@.           .@@#############@@.             .@@#############@@.      ",
"         ...#$$$$$$$$$#.                .@###$$$$$$$$$##.               .@###$$$$$$$$$##.               .@@@.$$$$$$$$$#.               ...#############...             ...#############...            ....@##$$$$$$$$$#....              .@##$$$$$$$$$#.                 .@##$$$$$$$$$#.             .@@@@.##$$$$$$$$$#.@@@.           ...#############...             ...#############...      ",
"         .@##$$$$$$$$$#.                .@####$$$$$$$####.              .@####$$$$$$$####.               ...#$$$$$$$$$#.              .######$$$$$$$$$##.@.           .######$$$$$$$$$##.@.              .@##$$$$$$$$$#.                 .@###@$$$$$$##.                 .@###@$$$$$$##.              ....@##$$$$$$$$$#....           .######$$$$$$$$$##.@.           .######$$$$$$$$$##.@.     ",
"        .@####$$$$$$$###.              .@###@........@###.             .@###@........@###.               .@##$$$$$$$$$#.             .@##@.#$$$$$$$$$$$#.@@.         .@##@.#$$$$$$$$$$$#.@@.             .@###$$$$$$$##.                  .@@##......#@.                  .@@##......#@.                 .@##$$$$$$$$$#.             .@##@.#$$$$$$$$$$$#.@@.         .@##@.#$$$$$$$$$$$#.@@.    ",
"        .@###........###.              .@@@@.        .@@@.             .@@@@.        .@@@.              .@####$$$$$$$###.            .@@@.##$$$$$$$$$$$#.@@.         .@@@.##$$$$$$$$$$$#.@@.              .@##.......##.                   .@##. .@@@@.                    .@##. .@@@@.                  .@###$$$$$$$##.             .@@@.##$$$$$$$$$$$#.@@.         .@@@.##$$$$$$$$$$$#.@@.    ",
"        .@@@@.      .@@@.               ....          ...               ....          ...               .@###........###.             ...@###$$$$$$$$$##...           ...@###$$$$$$$$$##...               .@@@.   .@@@@.                    ...   ....                      ...   ....                    .@##.......##.              ...@###$$$$$$$$$##...           ...@###$$$$$$$$$##...     ",
"         ....        ...                                                                                .@@@@.      .@@@.               .@###.........##.               .@###.........##.                  ...     ....                                                                                   .@@@.   .@@@@.                .@##..........##.               .@##..........##.       ",
"                                                                                                         ....        ...                 .@##.      .@#@.                .@##.      .@#@.                                                                                                                  ...     ....                 .@#@.       .@@@.               .@#@.       .@@@.       ",
"                                                                                                                                          ...       .@@.                  ...       .@@.                                                                                                                                                .@@.         ...                .@@.         ...        ",
"                                                                                                                                                    ...                             ...                                                                                                                                                 ...                             ...                     "
};
