/* XPM */
static char *_0bce6375fe5489fcedba5f892039234uFU3x5laiPOATjIC[] = {
/* columns rows colors chars-per-pixel */
"160 32 10 1 ",
"  c None",
". c #211F30",
"X c #076029",
"o c #9C1B4D",
"O c #CC3048",
"+ c #E44A4A",
"@ c #28860F",
"# c #72A11D",
"$ c #A4CC42",
"% c white",
/* pixels */
"                                                                                                                                                                ",
"                                                                                                                                                                ",
"                                                                                                                                                                ",
"                                                                                                                                                                ",
"                                                                                                                                                                ",
"                                                                                                                                                                ",
"       ....   ......   ...             ....   ......   ...             ....   ......   ...             ....   ......   ...             ....   ......   ...      ",
"      .####. .######. .+++.           .####. .######. .+++.           .####. .######. .+++.           .####. .######. .+++.           .####. .######. .+++.     ",
"      ................oOOO.           ................oOOO.           ................oOOO.           ................oOOO.           ................oOOO.     ",
"     .+++O+OOOO+O+++Oo.o..           .+++O+OOOO+O+++Oo.o..           .+++O+OOOO+O+++Oo.o..           .+++O+OOOO+O+++Oo.o..           .+++O+OOOO+O+++Oo.o..      ",
"     ..ooOoOOOOoOooo....oO.          ..ooOoOOOOoOooo....oO.          ..ooOoOOOOoOooo....oO.          ..ooOoOOOOoOooo....oO.          ..ooOoOOOOoOooo....oO.     ",
"     .OOOOOOOOOOOOOOOoo.O+.          .OOOOOOOOOOOOOOOoo.O+.          .OOOOOOOOOOOOOOOoo.O+.          .OOOOOOOOOOOOOOOoo.O+.          .OOOOOOOOOOOOOOOoo.O+.     ",
"     ...................O+.          ...................O+.          ...................O+.          ...................O+.          ...................O+.     ",
"    .@X%%%%X@X%%%%X@@@@..+.         .@X%%%%X@X%%%%X@@@@..+.         .@X%%%%X@X%%%%X@@@@..+.         .@X%%%%X@X%%%%X@@@@..+.         .@X%%%%X@X%%%%X@@@@..+.     ",
"    .#@XXXX@#@XXXX@####@..          .#@XXXX@#@XXXX@####@..          .#@XXXX@#@XXXX@####@..          .#@XXXX@#@XXXX@####@..          .#@XXXX@#@XXXX@####@..      ",
"    .###################.           .###################.           .###################.           .###################.           .###################.       ",
"    .##XXXXXXXXXXXX#####.           .##XXXXXXXXXXXX#####.           .##XXXXXXXXXXXX#####.           .##XXXXXXXXXXXX#####.           .##XXXXXXXXXXXX#####.       ",
"    .#@############@###@.           .#@############@###@.           .#@############@#....           .#@############@#....           .#@############@#....       ",
"    .#####@@@@@######....           .#####@@@@@######....           .#####@@@@@#####.##@.           .#####@@@@@#####.##@.           .#####@@@@@#####.##@.       ",
"     .@#############.##@.            .@#############.##@.            .@################@.            .@################@.            .@################@.       ",
"      .@@##############@.             .@@##############@.             .@@##############@.             .@@##############@.             .@@##############@.       ",
"       ..##############@.              ..##############@.              ..#############@@.              ..#############@@.              ..#############@@.       ",
"        .$$$$$$$$#####@@.               .$$$$$$$$#####@@.               .$$$$$$$$####@...               .$$$$$$$$####@...               .$$$$$$$$####@...       ",
"       .@.$$$$$$$$###@...              .@.$$$$$$$$###@...              .@.$$$$$$$$####@..              .@.$$$$$$$$####@..              .@.$$$$$$$$####@..       ",
"       .@@.$$$$$$$####@..              .@@.$$$$$$$####@..              .@@.$$$$$$$####@..              .@@.$$$$$$$####@..              .@@.$$$$$$$####@..       ",
"       .@@@.#$$$$$#####@.              .@@@.#$$$$$#####@.              .@@@.#$$$$$#####@.              .@@@.#$$$$$#####@.              .@@@.#$$$$$#####@.       ",
"        ... ..#$$#@####@.               ... ..#$$#@####@.               ... ..#$$#@####@.               ... ..#$$#@####@.               ... ..#$$#@####@.       ",
"              .....@###@.                     .....@###@.                     .....@###@.                     .....@###@.                     .....@###@.       ",
"                .@@.@@@@.                       .@@.@@@@.                       .@@.@@@@.                       .@@.@@@@.                       .@@.@@@@.       ",
"                 .......                         .......                         .......                         .......                         .......        ",
"                                                                                                                                                                ",
"                                                                                                                                                                "
};
