/* XPM */
static char *_cc82f789ecd4337c902c5991a5ef980Un8GJoQgKwevWkCc[] = {
/* columns rows colors chars-per-pixel */
"100 100 19 1 ",
"  c #D8BD9B",
". c #D8BC9B",
"X c #D7BA99",
"o c #D5B396",
"O c #D4B094",
"+ c #D5B195",
"@ c #D6B798",
"# c #D7BC9A",
"$ c #D7BB9A",
"% c #D6B597",
"& c #D6B898",
"* c #D5B295",
"= c #D8BC9A",
"- c #D6B697",
"; c #D5B094",
": c #D5B496",
"> c #D7B999",
", c #D5B095",
"< c white",
/* pixels */
"   .                    XoO++++++++++++++++++++++++++++++++++++++++++++++OoX                    .   ",
"@X  #                   $@oOO++++++++++++++++++++++++++++++++++++++++++OOo@$                   #  X@",
"+%$#                     #&*+O++++++++++++++++++++++++++++++++++++++++O+*&#                     #$%+",
"O+%$  =                =  #&*OO++++++++++++++++++++++++++++++++++++++OO*&#  =                =  $%+O",
"+O+-X  #                .= #@oOO++++++++++++++++++++++++++++++++++++OOo@# =.                #  X-+O+",
"+O++%$#                    ##&*+O++++++++++++++++++++++++++++++++++O+*&##                    #$%++O+",
"++OO*%X  #                #  $&oOO++++++++++++++++++++++++++++++++OOo&$  #                #  X%*OO++",
"++++O+-X# =                 # #@o+O++++++++++++++++++++++++++++++O+o@# #                 = #X-+O++++",
"++++O++%$                     ##&*O;++++++++++++++++++++++++++++;O*&##                     $%++O++++",
"+++++OO*%X  #                #  $&oOO++++++++++++++++++++++++++OOo&$  #                #  X%*OO+++++",
"+++++++O+-$#                   = #@*+O++++++++++++++++++++++++O+*@# =                   #$-+O+++++++",
"+++++++O;+:$                   .  #>*O++++++++++++++++++++++++O*>#  .                   $:+;O+++++++",
"++++++++OO+-X  #                #  #@oOO++++++++++++++++++++OOo@#  #                #  X-+OO++++++++",
"++++++++++O+-$#                     #@*+O++++++++++++++++++O+*@#                     #$-+O++++++++++",
"++++++++++OO+:$  =                =  #>*O;++++++++++++++++;O*>#  =                =  $:+OO++++++++++",
"++++++++++++O+-X  #                =  #@oOO++++++++++++++OOo@#  =                #  X-+O++++++++++++",
"++++++++++++O;+%$#                     #&*+O++++++++++++O+*&#                     #$%+;O++++++++++++",
"+++++++++++++OO*%X  #                #  $&oOO++++++++++OOo&$  #                #  X%*OO+++++++++++++",
"+++++++++++++++O+-X# =                .= #@o+O++++++++O+o@# =.                = #X-+O+++++++++++++++",
"+++++++++++++++O++%$                     ##&*OO++++++OO*&##                     $%++O+++++++++++++++",
"++++++++++++++++OO*%X  #                #  $&oOO++++OOo&$  #                #  X%*OO++++++++++++++++",
"++++++++++++++++++O+-$#                   # #@*+O++O+*@# #                   #$-+O++++++++++++++++++",
"++++++++++++++++++O++%$                     ##&*O,,O*&##                     $%++O++++++++++++++++++",
"OO;++++++++++++++++OO+%X  #                #  #&oOOo&#  #                #  X%+OO++++++++++++++++;OO",
"o*OO+++++++++++++++++O+-$#                   = #@**@# =                   #$-+O+++++++++++++++++OO*o",
"X-+O+++++++++++++++++OO+:$                   .  $XX$  .                   $:+OO+++++++++++++++++O+-X",
" X%+OO++++++++++++++++;O+-X  #                =      =                #  X-+O;++++++++++++++++OO+%X ",
"  $%++O++++++++++++++++;O+%$#                                          #$%+O;++++++++++++++++O++%$  ",
". #$-+O+++++++++++++++++OO+%$  =                                    =  $%+OO+++++++++++++++++O+-$# .",
" #  X%*OO+++++++++++++++++O+-X  #                                  #  X-+O+++++++++++++++++OO*%X  # ",
"     $%++O++++++++++++++++O++%$#                                    #$%++O++++++++++++++++O++%$     ",
"   = #X-+O+++++++++++++++++OO*%X  #                              #  X%*OO+++++++++++++++++O+-X# =   ",
"    #  X%*OO+++++++++++++++++O+-X# =                            = #X-+O+++++++++++++++++OO*%X  #    ",
"       #$%+;O++++++++++++++++O++%$                                $%++O++++++++++++++++O;+%$#       ",
"      #  X-+O+++++++++++++++++OO*%X  #                        #  X%*OO+++++++++++++++++O+-X  #      ",
"       =  $:+OO+++++++++++++++++O+-$#                          #$-+O+++++++++++++++++OO+:$  =       ",
"          #$-+O+++++++++++++++++O;+:$                          $:+;O+++++++++++++++++O+-$#          ",
"         #  X-+OO++++++++++++++++OO+-X  #                  #  X-+OO++++++++++++++++OO+-X  #         ",
"             $:+;O+++++++++++++++++O+-$#                    #$-+O+++++++++++++++++O;+:$             ",
"             #$-+O+++++++++++++++++OO+:$  =              =  $:+OO+++++++++++++++++O+-$#             ",
"            #  X%*OO+++++++++++++++++O+-X  #            #  X-+O+++++++++++++++++OO*%X  #            ",
"                $%++O++++++++++++++++O;+%$#              #$%+;O++++++++++++++++O++%$                ",
"              = #X-+O+++++++++++++++++OO*%X  #        #  X%*OO+++++++++++++++++O+-X# =              ",
"               #  X%*OO+++++++++++++++++O+-X# =      = #X-+O+++++++++++++++++OO*%X  #               ",
"                  #$%++O++++++++++++++++O++%$          $%++O++++++++++++++++O++%$#                  ",
"                 #  X-+O+++++++++++++++++OO*%X  #  #  X%*OO+++++++++++++++++O+-X  #                 ",
"                  =  $%+OO+++++++++++++++++O+-$# .. #$-+O+++++++++++++++++OO+%$  =                  ",
"                     #$%+O;++++++++++++++++O++%$    $%++O++++++++++++++++;O+%$#                     ",
"                    #  X-*O+++++++++++++++++OO+%X  X%+OO+++++++++++++++++O*-X  #                    ",
"                     .  $oO+++++++++++++++++++OO@  @OO+++++++++++++++++++Oo$  .                     ",
"                     .  $oO+++++++++++++++++++OO@  @OO+++++++++++++++++++Oo$  .                     ",
"                    #  X-*O+++++++++++++++++OO+%X  X%+OO+++++++++++++++++O*-X  #                    ",
"                     #$%+O;++++++++++++++++O++%$    $%++O++++++++++++++++;O+%$#                     ",
"                  =  $%+OO+++++++++++++++++O+-$# .. #$-+O+++++++++++++++++OO+%$  =                  ",
"                 #  X-+O+++++++++++++++++OO*%X  #  #  X%*OO+++++++++++++++++O+-X  #                 ",
"                  #$%++O++++++++++++++++O++%$          $%++O++++++++++++++++O++%$#                  ",
"               #  X%*OO+++++++++++++++++O+-X# =      = #X-+O+++++++++++++++++OO*%X  #               ",
"              = #X-+O+++++++++++++++++OO*%X  #        #  X%*OO+++++++++++++++++O+-X# =              ",
"                $%++O++++++++++++++++O;+%$#              #$%+;O++++++++++++++++O++%$                ",
"            #  X%*OO+++++++++++++++++O+-X  #            #  X-+O+++++++++++++++++OO*%X  #            ",
"             #$-+O+++++++++++++++++OO+:$  =              =  $:+OO+++++++++++++++++O+-$#             ",
"             $:+;O+++++++++++++++++O+-$#                    #$-+O+++++++++++++++++O;+:$             ",
"         #  X-+OO++++++++++++++++OO+-X  #                  #  X-+OO++++++++++++++++OO+-X  #         ",
"          #$-+O+++++++++++++++++O;+:$                          $:+;O+++++++++++++++++O+-$#          ",
"       =  $:+OO+++++++++++++++++O+-$#                          #$-+O+++++++++++++++++OO+:$  =       ",
"      #  X-+O+++++++++++++++++OO*%X  #                        #  X%*OO+++++++++++++++++O+-X  #      ",
"       #$%+;O++++++++++++++++O++%$                                $%++O++++++++++++++++O;+%$#       ",
"    #  X%*OO+++++++++++++++++O+-X# =                            = #X-+O+++++++++++++++++OO*%X  #    ",
"   = #X-+O+++++++++++++++++OO*%X  #                              #  X%*OO+++++++++++++++++O+-X# =   ",
"     $%++O++++++++++++++++O++%$#                                    #$%++O++++++++++++++++O++%$     ",
" #  X%*OO+++++++++++++++++O+-X  #                                  #  X-+O+++++++++++++++++OO*%X  # ",
". #$-+O+++++++++++++++++OO+%$  =                                    =  $%+OO+++++++++++++++++O+-$# .",
"  $%++O++++++++++++++++;O+%$#                                          #$%+O;++++++++++++++++O++%$  ",
" X%+OO++++++++++++++++;O+-X  #                =      =                #  X-+O;++++++++++++++++OO+%X ",
"X-+O+++++++++++++++++OO+:$                   .  $XX$  .                   $:+OO+++++++++++++++++O+-X",
"o*OO+++++++++++++++++O+-$#                   = #@**@# =                   #$-+O+++++++++++++++++OO*o",
"OO;++++++++++++++++OO+%X  #                #  #&oOOo&#  #                #  X%+OO++++++++++++++++;OO",
"++++++++++++++++++O++%$                     ##&*O,,O*&##                     $%++O++++++++++++++++++",
"++++++++++++++++++O+-$#                   # #@*+O++O+*@# #                   #$-+O++++++++++++++++++",
"++++++++++++++++OO*%X  #                #  $&oOO++++OOo&$  #                #  X%*OO++++++++++++++++",
"+++++++++++++++O++%$                     ##&*OO++++++OO*&##                     $%++O+++++++++++++++",
"+++++++++++++++O+-X# =                .= #@o+O++++++++O+o@# =.                = #X-+O+++++++++++++++",
"+++++++++++++OO*%X  #                #  $&oOO++++++++++OOo&$  #                #  X%*OO+++++++++++++",
"++++++++++++O;+%$#                     #&*+O++++++++++++O+*&#                     #$%+;O++++++++++++",
"++++++++++++O+-X  #                =  #@oOO++++++++++++++OOo@#  =                #  X-+O++++++++++++",
"++++++++++OO+:$  =                =  #>*O;++++++++++++++++;O*>#  =                =  $:+OO++++++++++",
"++++++++++O+-$#                     #@*+O++++++++++++++++++O+*@#                     #$-+O++++++++++",
"++++++++OO+-X  #                #  #@oOO++++++++++++++++++++OOo@#  #                #  X-+OO++++++++",
"+++++++O;+:$                   .  #>*O++++++++++++++++++++++++O*>#  .                   $:+;O+++++++",
"+++++++O+-$#                   = #@*+O++++++++++++++++++++++++O+*@# =                   #$-+O+++++++",
"+++++OO*%X  #                #  $&oOO++++++++++++++++++++++++++OOo&$  #                #  X%*OO+++++",
"++++O++%$                     ##&*O;++++++++++++++++++++++++++++;O*&##                     $%++O++++",
"++++O+-X# =                 # #@o+O++++++++++++++++++++++++++++++O+o@# #                 = #X-+O++++",
"++OO*%X  #                #  $&oOO++++++++++++++++++++++++++++++++OOo&$  #                #  X%*OO++",
"+O++%$#                    ##&*+O++++++++++++++++++++++++++++++++++O+*&##                    #$%++O+",
"+O+-X  #                .= #@oOO++++++++++++++++++++++++++++++++++++OOo@# =.                #  X-+O+",
"O+%$  =                =  #&*OO++++++++++++++++++++++++++++++++++++++OO*&#  =                =  $%+O",
"+%$#                     #&*+O++++++++++++++++++++++++++++++++++++++++O+*&#                     #$%+",
"@X  #                   $@oOO++++++++++++++++++++++++++++++++++++++++++OOo@$                   #  X@",
"   .                    XoO++++++++++++++++++++++++++++++++++++++++++++++OoX                    .   "
};
