/* XPM */
static char *d81c647af8724bce8ade00245a3b1697hzqgUq4lWBI0AJT2[] = {
/* columns rows colors chars-per-pixel */
"70 70 124 2 ",
"   c None",
".  c #9D6F00",
"X  c #9F7100",
"o  c #A27400",
"O  c #A77800",
"+  c #AB7D00",
"@  c #AF8000",
"#  c #B28300",
"$  c #B78900",
"%  c #BB8C00",
"&  c #B59200",
"*  c #BF9000",
"=  c #BC9C00",
"-  c #C39400",
";  c #C79800",
":  c #CA9B00",
">  c #D09F00",
",  c #C4A400",
"<  c #CDA300",
"1  c #CDAC00",
"2  c #D4A400",
"3  c #D4AB00",
"4  c #DCAC00",
"5  c #D4B300",
"6  c #DBB500",
"7  c #D3BA00",
"8  c #DBBB00",
"9  c #E2B200",
"0  c #E4BC00",
"q  c #ECBB00",
"w  c #F0BF00",
"e  c #D6C200",
"r  c #DBC300",
"t  c #DCCB00",
"y  c #E6C300",
"u  c #EBC400",
"i  c #E1CC00",
"p  c #ECCA00",
"a  c #F3C300",
"s  c #F8C700",
"d  c #F1CD00",
"f  c #FECD00",
"g  c #E4D300",
"h  c #EBD300",
"j  c #E6DA00",
"k  c #EBDC00",
"l  c #F5D300",
"z  c #FDD300",
"x  c #F6DA00",
"c  c #FEDC00",
"v  c #FEDF10",
"b  c #EDE300",
"n  c #F1E200",
"m  c #FFE400",
"M  c #F3EB00",
"N  c #FEEC00",
"B  c #FFE30D",
"V  c #FFEF09",
"C  c #F6F100",
"Z  c #FEF300",
"A  c #FFFD00",
"S  c #FFF108",
"D  c #FFFB09",
"F  c #FFE315",
"G  c #FFFF10",
"H  c #FFF71F",
"J  c #FFF31A",
"K  c #FFFF1C",
"L  c #FFEA21",
"P  c #FFE32C",
"I  c #FFEC2F",
"U  c #FFF120",
"Y  c #FFFF20",
"T  c #FFFF25",
"R  c #FFF429",
"E  c #FFF92F",
"W  c #FFFF2D",
"Q  c #FFE63C",
"!  c #FFF634",
"~  c #FFF734",
"^  c #FFF832",
"/  c #FFFF30",
"(  c #FFE640",
")  c #FFEC5B",
"_  c #FFFC63",
"`  c #FFFF62",
"'  c #FFFE64",
"]  c #FFFD67",
"[  c #FFFF61",
"{  c #FFFF6A",
"}  c #FFED7A",
"|  c #FFFC70",
" . c #FFFC74",
".. c #FFFC79",
"X. c #FFEE81",
"o. c #FFF687",
"O. c #FFFF80",
"+. c #FFFB8E",
"@. c #FFFE8C",
"#. c #FFF19B",
"$. c #FFFE99",
"%. c #FFFE9D",
"&. c #FFFAA1",
"*. c #FFFFAD",
"=. c #FFF5B7",
"-. c #FFFEB3",
";. c #FFFFB4",
":. c #FFFFB7",
">. c #FFFFB3",
",. c #FFFCBF",
"<. c #FFFFC2",
"1. c #FFF7C8",
"2. c #FFFFD6",
"3. c #FFFFDC",
"4. c #FFFFDC",
"5. c #FFFFE5",
"6. c #FFFBE8",
"7. c #FFFFE8",
"8. c #FFFFEB",
"9. c #FFFDED",
"0. c #FFFFEC",
"q. c #FFFDF5",
"w. c #FFFFFE",
"e. c #FFFFFD",
/* pixels */
"                                                          0 y p p d d d d y 9 9 4                                                           ",
"                                                  y p l x c c c c c c c c c z f f s a q 9                                                   ",
"                                            y d x c c c c c c c c c c c c c c f f f f f f s q 9                                             ",
"                                        p l c c c c c m m L I N N N N N m m m z f f f f f f f f a 9                                         ",
"                                    p z c c c c m S E | -.<._ D A A A A A A A Z N m z z f f f f f f a 4                                     ",
"                                0 l c c c c N H ] :.9.9.&.~ Z N N N m m m m m N m N N N c z f f f f f a 9 2                                 ",
"                              y x c c c N ~ @.3.e.6.#.Q m c c c x l l l l z c c z f f z c c c z f f f s q q 4                               ",
"                          5 p c c c m R $.7.q.1.} P c l p 8 5 1 , , , , , , 1 5 6 9 a f f f z z z f f f q q q 9 :                           ",
"                        6 p x c c N D +.=.X.( v l y 5 , = = = = , , , , , , = = $ o + % 4 a f f f f f f a q q q q 2                         ",
"                      8 p l c m Z A Z B c c l 8 , = = , 1 8 y p l x 0 3 x l h y 5 % + X X + : q f f f f a q q q q q 4                       ",
"                    8 p d c m Z A N c c l 8 , = , 5 y l c m N Z Z Z 1 : C A A A Z c a 4 % o . + : a f f s q q q q q q 4                     ",
"                  8 p p z m A Z m c c y , = , 6 d c m V ^ ] / A A b 5 4 i A Z N m c z z f q - O . + : q q q q q q q q q 4                   ",
"                2 p p l m A Z m c l 5 = = 5 d c m J _ :.7.*.Y A A e p a < x c c z f f f f f f q * o o % 2 4 4 9 q q q q q :                 ",
"              : 6 y p m A N c c d 1 = , y c m U ..2.e.3. .G A A x 7 c s : y c c z f f f f f f f s 4 + X + : 2 2 9 q q q q 4 -               ",
"              4 9 0 l Z N c c p , = 1 l c F  .4.e.2.O.T A Z N m 6 j c f 4 < c c z f f f f f f f f f q % X O - 2 2 4 9 q q q 2               ",
"            2 9 9 0 N N c c p , = 5 z F ) ,.5.-._ K A A N c c l 5 N z f 9 ; p c f f f f f f f f f f f a - X O - 2 2 4 9 q q 4 :             ",
"          : 9 9 9 p N c c d , = 6 x F o.%.{ W D A A N m c c c 0 t N f f q 2 3 z f f f f f f f f f f f f a % X O : 2 2 2 9 q 9 2 -           ",
"          4 9 9 9 x c c l 1 = 5 x m S G A A A A Z m c c c c z 3 C m f f q 9 ; a f f f f f f f f f f f f a 9 % X + : 2 2 2 9 9 2 :           ",
"        2 9 9 9 0 z f l 3 = 1 z m Z A A A A A N c c c c c c y r A c f f q q 2 4 f f f f f f f f f f f f a q 9 @ X # 2 2 2 4 9 2 2 ;         ",
"        4 9 9 9 u f f : & , l c Z A A A A A m c c c c c c c 3 M Z z f f a 9 q ; a f f f f f f f f f f s q q q 2 O o % 2 2 2 4 4 2 2         ",
"      2 9 9 4 9 s f 4 o O y c N A A A A Z m c c c c c c c p 7 A N f f f a 9 a 2 9 f f f f f f f f f f a q q q 9 - o o - 2 2 2 2 2 2 :       ",
"      2 9 4 4 0 f a $ X - f m A A A A Z c c c c c c c c c 5 k A m f f f a 9 w q : s f f f f f f f f f a q q q q 4 # X + : 2 2 2 2 2 :       ",
"    - 2 4 3 3 q s : o + q c A A A A N c c c c c c c c c d 5 A A c f f f a 9 q s : 9 f f f f f f f f s q q q q q 9 : o o $ : 2 2 2 2 : %     ",
"    : 2 4 : 4 a 9 + X : z Z A A A N c c c c c c c c c c 6 g A A z f f f a 9 9 a q : f f f f f f f f a q q q q q q 4 $ X + % 2 2 2 2 : -     ",
"    2 2 2 - 9 q - o O q m A A A N z f l l l d u y 0 0 6 1 Z A Z f f f f a 9 9 q f : 2 4 9 9 q a a a q q q q q q q 9 : o o # : 2 2 2 : ;     ",
"  - 2 2 : - 9 4 # X % q g g t r 3 2 2 3 3 5 5 8 r i g k M A A m f f f f a 9 9 9 s a 4 2 : : : : : - - - ; : : < 2 2 : + X + % 2 2 : : : %   ",
"  : 2 2 - - 4 : O o 4 6 = r h k n M C Z Z A A A Z Z N N m m c z f f f f a 9 9 9 a f f s a a q q 9 9 4 4 4 4 2 - % # * % o O $ : 2 : : : -   ",
"  : 2 2 % ; 2 % o + a N j 7 M A Z N m m c c z z z f f f f f f f f f f f q 9 9 9 9 q q q q q q q 9 9 9 9 9 4 : - % : 9 : o o # % : : : : -   ",
"  2 2 : $ : : @ X % z A A k 1 b Z z f f f f f f f f f f f f f f f f f f q 9 9 9 9 9 9 9 9 9 9 9 9 9 9 4 2 : - % 2 q q 4 @ X @ $ - : : : ;   ",
"- 2 2 : $ : - + X > m A A N a < j Z l w a s f f f f f f f f f f f f f s 9 9 9 9 9 9 9 9 9 9 9 9 9 9 4 : : - % 4 q q q 4 % X + # % : : : : % ",
"- 2 2 - $ : * O o 4 N A A c f s 3 t Z l q 9 q a s f f f f f f f f f f q 9 9 9 9 9 9 9 9 9 9 9 9 4 2 - - % * 9 q q q q 9 - o o # $ ; : : : % ",
": 2 2 - $ - % o o 4 n A Z f f f s 4 7 N z q 9 9 9 q q a a s s s s s a 9 9 9 9 9 9 9 9 9 9 9 9 4 - % - % - 9 q q q q q 9 : o o # # - : : : - ",
": 2 2 * $ - $ o o 4 k b x f f f f f 9 5 M c q 9 9 9 9 9 9 9 9 9 9 9 9 9 9 9 9 9 9 9 9 9 9 4 2 % % - % : q q q q q q q q : o o # # % : : : - ",
": 2 2 % $ % $ o O 3 k k u a s f f f f q 1 b m q 9 9 9 9 9 9 9 9 9 9 9 9 9 9 9 9 9 9 9 9 2 : $ $ - % 2 q q q q q q q q 9 : o o @ # % : : : - ",
": 2 2 % $ % $ o + 2 h k q q q a s f f f a < j m u 9 9 9 9 9 9 9 9 9 9 9 9 9 9 9 9 9 4 2 - + $ % % 4 q q q q q q q q 9 4 : O o @ # $ : : : - ",
": 2 2 % $ $ # o + 2 i h q q q q q q a a s a 2 r m u 9 9 9 9 9 9 9 9 9 9 9 9 9 9 9 4 : $ O $ % * 9 q q q q q q q q 9 4 4 ; O o @ # $ - : : - ",
": 2 2 % $ $ # o O : 8 p q q q q q q q q q q q < 5 c u 9 9 9 9 9 9 9 9 9 9 9 9 9 9 4 % o $ % - 9 q q q q q q q q 9 4 4 4 - o o @ # # - : : - ",
": 2 2 * $ $ # o o : 5 0 q q q q q q q q q q q q : r m q 9 9 9 9 9 9 9 9 9 9 9 9 9 4 - + $ - q q q q q q q q 9 4 4 4 4 2 - o o # # # - : : - ",
"- 2 2 - $ $ $ o o : 3 6 q q q q q q q q q q q q 2 j c s 9 9 9 9 9 9 9 9 9 9 9 9 9 4 : # # - q q q q q q q 9 4 4 4 4 4 2 * o o # # # - : : - ",
"% : 2 - $ $ $ + o - 3 3 9 q q q q q q q q q q 9 1 N z f a 9 9 9 9 9 9 9 9 9 9 9 9 4 : % @ % 9 q q q q q 9 4 4 4 4 4 4 : % X O # # # - : : % ",
"% : : ; $ $ $ + X % 2 2 4 q q q q q q q q q q 3 t N f f f 9 9 9 9 9 9 9 9 9 9 9 9 9 : - + % : q q q 9 4 4 4 4 4 4 4 2 : # X + # # $ - : : % ",
"  ; : - $ $ $ @ X @ 2 2 2 9 q q q q q q q q q < M m f f f q 9 9 9 9 4 2 : 2 2 4 9 9 2 - # % % 9 9 4 4 4 4 4 4 4 4 4 : : + X + # # $ : : ;   ",
"  - : ; $ # $ # o o : 2 2 2 9 q q q q q q q 4 5 A z f f s 9 9 9 9 4 : - - - : : 2 4 2 : % # % : 4 4 4 4 4 4 4 4 4 2 : - o o @ # # % : : -   ",
"  - : : % # # # O o - 2 2 2 4 q q q q q q q < j Z z f f a 9 9 9 4 : - - : : - - - : : : - + % % 4 4 4 4 4 4 4 4 4 : : % X o # # # % : : -   ",
"  % : : - # # # + X # 2 2 2 2 4 q q q q q 9 1 A N f f s 9 9 9 4 : % + + $ - : : : - - : - # % % 2 4 4 4 4 4 4 4 : : : + X + # # # - : : %   ",
"    ; : - $ # # @ o o ; 2 2 2 2 4 q q q q 2 t A c f f q 9 9 4 : % @ + # + + $ - : : : : : % $ % - 4 4 4 4 4 4 2 : : - o o @ # # $ ; : ;     ",
"    - : : % # # # O X # : < 2 2 2 4 q q q < M A z f a 9 9 4 : % $ - 4 4 - # + + $ - : : : - # - % 3 4 4 4 4 2 : : : # X + # # # % : : -     ",
"    % : : - # # # + o o - : : : : 2 2 9 4 7 A Z f s 9 9 4 : % % 2 9 9 9 4 2 % # @ + % - : - # - % : 4 4 4 : : : : - o o + # # # - : : %     ",
"      - : ; $ # # # O X + : : : : : : : - k A m f q 9 4 - % : 4 4 4 4 4 4 4 4 : % # # + % - % % - % 4 2 : : : : : + X + # # # $ : : -       ",
"      * : : % # # # @ o o % : : : : : - , A A c a 4 : % ; 4 4 4 4 4 4 4 4 4 4 4 4 : % $ # # # # - % - : : : : : % o o @ # # # * : : *       ",
"        - : ; $ # # # + o o - : : : : % t A A s 2 % - 2 4 4 4 4 4 4 4 4 4 4 4 4 4 4 4 : % $ # + - * % : : : : - o o + # # # $ ; : -         ",
"        * : : * # # # # O X + - : : : = C Z p - % - 2 2 4 4 4 4 4 4 4 4 4 4 4 4 4 4 4 4 2 % $ $ - - $ - : : - + X O # # # # - : : *         ",
"          - : ; $ # # # @ o X @ ; : - 5 k < % - : : : : : : < 2 2 2 2 2 2 2 2 2 2 2 : : : : - % $ % % % : - + X o # # # # % : : -           ",
"          % : : - # # # # + o X @ ; $ = * - : : : : : : : : : : : : : : : : : : : : : : : : : : - % # # - @ X o + # # # # - : : %           ",
"            - : : % # # # # + o X + $ - : : : : : : : : : : : : : : : : : : : : : : : : : : : : : : - $ + X o + # # # # % : : -             ",
"              - : - $ # # # # + o X + - : : : : : : : : : : : : : : : : : : : : : : : : : : : : : : - + X o + # # # # $ ; : -               ",
"              % ; : - # # # # # + o X o % : : : : : : : : : : : : : : : : : : : : : : : : : : : ; % o X o + # # # # # - : ; %               ",
"                % : : * # # # # # # O o o + * : : : : : : : : : : : : : : : : : : : : : : : : * + o o O # # # # # # % : : %                 ",
"                  % : : % # # # # # # + o X o @ * : : : : : : : : : : : : : : : : : : : : * @ o X o + # # # # # # % : : %                   ",
"                    * : : % # # # # # # @ + o X o + % - : : : : : : : : : : : : : : - $ + o X o + @ # # # # # # % : : %                     ",
"                      % : : - $ # # # # # # @ + o X X o + # % % - - - - - - % % # + o X X o + @ # # # # # # # % : : %                       ",
"                        % ; : - $ # # # # # # # # + O o o X X o o o o o o o o X X o o O + # # # # # # # # # % : ; %                         ",
"                          % - : ; % # # # # # # # # # # + + O o o o o o o o o O + + # # # # # # # # # # $ - : - %                           ",
"                              - : : - % # # # # # # # # # # # # # # # # # # # # # # # # # # # # # # $ % ; : -                               ",
"                                % - : : - % # # # # # # # # # # # # # # # # # # # # # # # # # # $ % - : - %                                 ",
"                                    % - : : - % $ # # # # # # # # # # # # # # # # # # # # # % - ; : - %                                     ",
"                                        % - : : ; - % % $ # # # # # # # # # # # # $ $ % - - : : - %                                         ",
"                                            % - ; : : : ; - - * % % % % % % % - - - : : : ; - %                                             ",
"                                                  % - - ; : : : : : : : : : : : : ; - - %                                                   ",
"                                                          % % * - - - - - - * % %                                                           "
};
