/* XPM */
static char *_1bb500ca1844c69c11573f4d93c54a4cS8FysPMkSPpAzIN[] = {
/* columns rows colors chars-per-pixel */
"68 69 143 2 ",
"   c None",
".  c #9D6F00",
"X  c #9F7100",
"o  c #A27400",
"O  c #A77800",
"+  c #AB7C00",
"@  c #AF8000",
"#  c #B28300",
"$  c #B68900",
"%  c #BB8C00",
"&  c #B59200",
"*  c #BF9000",
"=  c #BC9C00",
"-  c #C39400",
";  c #C79800",
":  c #CA9B00",
">  c #D09F00",
",  c #C4A400",
"<  c #CEA100",
"1  c #CDAC00",
"2  c #D3A400",
"3  c #D5AA00",
"4  c #DCAC00",
"5  c #CEB600",
"6  c #D4B300",
"7  c #DBB500",
"8  c #D6BB00",
"9  c #DCBA00",
"0  c #E0AF00",
"q  c #E3B300",
"w  c #E8B700",
"e  c #E5BB00",
"r  c #ECBC00",
"t  c #F0BF00",
"y  c #D4B93A",
"u  c #DBC700",
"i  c #DECD00",
"p  c #E5C300",
"a  c #EAC500",
"s  c #E1CD00",
"d  c #ECCA00",
"f  c #F3C300",
"g  c #F8C700",
"h  c #F1CE00",
"j  c #FECD00",
"k  c #E2D300",
"l  c #ECD300",
"z  c #E6DA00",
"x  c #EDDB00",
"c  c #F5D400",
"v  c #FDD400",
"b  c #F5D900",
"n  c #FEDC00",
"m  c #FEDF10",
"M  c #EDE400",
"N  c #F1E000",
"B  c #FFE400",
"V  c #F2E900",
"C  c #FFEC00",
"Z  c #FFE30D",
"A  c #FFEF09",
"S  c #FFF300",
"D  c #FFFD00",
"F  c #FFF108",
"G  c #FFFB09",
"H  c #FFE315",
"J  c #FFE71D",
"K  c #FFFF10",
"L  c #FFF51D",
"P  c #FFFF1C",
"I  c #E3D427",
"U  c #F5D323",
"Y  c #FFEA21",
"T  c #FFE32C",
"R  c #FFEC2F",
"E  c #FFF120",
"W  c #FFFF20",
"Q  c #FFFF25",
"!  c #FFF429",
"~  c #FFF92F",
"^  c #FFFF2D",
"/  c #F5EC33",
"(  c #FFE63C",
")  c #FFF734",
"_  c #FFF832",
"`  c #FFFF30",
"'  c #D5BD5F",
"]  c #D8C24A",
"[  c #FFDD4D",
"{  c #E3D45C",
"}  c #FFDF5A",
"|  c #FFE640",
" . c #FFE65A",
".. c #FFEC5B",
"X. c #FBF150",
"o. c #FFFF62",
"O. c #FFFC63",
"+. c #FFFD67",
"@. c #FFFE64",
"#. c #FFFF61",
"$. c #FFFF6A",
"%. c #FFED7A",
"&. c #FFFC70",
"*. c #FFFF74",
"=. c #FFF873",
"-. c #FFFC79",
";. c #E3D49C",
":. c #FFEE81",
">. c #FFF687",
",. c #FFFF80",
"<. c #FFFB8E",
"1. c #FFFE8C",
"2. c #FFF19B",
"3. c #FFFE99",
"4. c #FFFE9D",
"5. c #E3D4AB",
"6. c #FFFAA1",
"7. c #FFFFAD",
"8. c #F8EFBC",
"9. c #FFF5B7",
"0. c #FFFEB3",
"q. c #FFFFB4",
"w. c #FFFFB7",
"e. c #FFFFB3",
"r. c #FFFCBF",
"t. c #FFFFC2",
"y. c #FFF7C8",
"u. c #FFFFD4",
"i. c #FFFFD7",
"p. c #F9F5DB",
"a. c #FFFFDC",
"s. c #FFFFDE",
"d. c #FFFFD9",
"f. c #FFFFE5",
"g. c #FFFBE8",
"h. c #FFFFE8",
"j. c #FFFFEB",
"k. c #FFFDED",
"l. c #FFFFEC",
"z. c #FFFDF5",
"x. c #FFFFFD",
"c. c #FFFFFE",
"v. c #FFFFFC",
/* pixels */
"                                                p d c n n n n n n n n n n v j j g f r q                                                 ",
"                                          p h n n n n n n n n n n n n n n n j j j j j j g r q                                           ",
"                                      d b n n n n n B B Y R C C C C C B B B v j j j j j j j j g q                                       ",
"                                  d v n n n n B F ~ &.0.t.O.G D D D D D D D S C B v v j j j j j j g 4                                   ",
"                              e b n n n n C L +.w.l.l.6.) S C C C B B B B B C B C C C n v j j j j j g q 2                               ",
"                            p n n n n C ) 1.s.x.g.2.( B n n n v b b b b v n n v j j v n n n v j j j g r r 4                             ",
"                        6 a n n n B ! 3.h.z.y.%.T n b d 9 6 1 , , , , , , 1 6 7 q f j j j v v v j j j r r r q :                         ",
"                      7 a n n n C G <.9.:.| m b p 6 , = = = = , , , , , , = = $ o + % 4 f j j j j j j f r r r r 2                       ",
"                    9 a c n B S D S Z n n c 7 , = = , 1 9 p d c b n n b b l a 6 % + X X + : r j j j j g r r r r r 4                     ",
"                  9 d h n B S D C n n c 7 , = , 6 p c n B C S S S D D D D D D S n f 4 % o . + : f j j g r r r r r r 4                   ",
"                9 d d v B D S B n n p , = , 7 h n B A _ +.` D D D D D D S S C B n v j j r ; O . + : r r r r r r r r r 4                 ",
"              2 a d c B D S B n b 6 = = 6 h n B L O.w.h.7.W D D D S C B B n n v j j j j j j r * o o % 2 4 4 q r r r r r :               ",
"            : 7 p d B D C n n h 1 = , p n B E -.u.x.s.*.K D D C B n v 9 9 9 7 r j j j j j j j g 4 + X + : 2 2 q r r r r 4 -             ",
"            4 q e b S C n n d , = 1 c n H =.d.x.u.,.Q D S C B n n v 6 5 5 5 1 < j j j j j j j j j r % X O ; 2 2 4 q r r r 2             ",
"          2 q q e C C n n d , = 6 v H ..r.f.0.O.P D D C n n n n n 7 z k 3 - < 2 j j j j j j j j j j g - X O ; 2 2 4 q r r 4 :           ",
"        : q q q d C n n h , = 7 n H >.4.$.^ G D D C B n n n n n 7 k C e : + ; 2 j j j j j j j j j j j f % X O : 2 2 2 q r q 2 -         ",
"        4 q q q b n n c 1 = 6 n B F K D D D D S B n n n n n n 9 i S v q : + ; 2 j j j j j j j j j j j f q % X + : 2 2 2 q q 2 :         ",
"      2 q q q e v j c 3 = 1 v B S D D D D D C B n n n n n n e u S v j q : + ; 2 j j j j j j j j j j j f r q @ X # 2 2 2 4 q 2 2 ;       ",
"      4 q q q a j j : & , c n S D D D D D B n n n n n n n p ] X.v j j q : + ; 2 j j j j j j j j j j g r r r 2 O o % 2 2 2 4 4 2 2       ",
"    2 q q 4 q g j 4 o O p n C D D D D S B n n n n n n n a ' p.[ j j j q : + ; 2 j j j j j j j j j j g r r r q - o o - 2 2 2 2 2 2 :     ",
"    2 q 4 4 e j f $ X - j C D D D D S n n n n n n n n d y 8.} j j j j q < + ; 2 j j j j j j j j j j f r r r r 4 # X + : 2 2 2 2 2 :     ",
"  ; 2 4 3 3 r g : o + r n D D D D C n n n n n n n n h 6 / U g j j j j q < + ; 2 j j j j j j j j j g r r r r r q : o o $ : 2 2 2 2 : %   ",
"  : 2 4 : 4 f q + X : v S D D D C n n n n n n n n c 6 V c 4 g j j j j q < + ; 2 j j j j j j j j j f r r r r r r 4 $ o + * 2 2 2 2 : -   ",
"  2 2 2 ; q r ; o O r B D D D C v v v n n n n n c 6 M b 2 * f j j j j q < + ; 2 j j j j j j j j g r r r r r r r q : o o $ : 2 2 2 : ;   ",
"; 2 2 : ; q 4 # X * v S D D S v j j j j v v v j 6 M b 4 % % g j j j j q < + ; 2 j j j j j j j g r r r r r r r r r 4 # X + % 2 2 : : : % ",
": 2 2 - ; 4 : O o 4 B D D D n j j j j j j j g 3 z b 4 % $ - p v j j j q < + ; 2 j j j j j j j f r r r r r r r r r q - o O $ : 2 : : : - ",
": 2 2 % ; 2 % o + f C D D C j j j j j j j j 4 k x 4 - # - - k n j j j q < + ; 2 j j j j j j f r r r r r r r r r r q : o o # % : : : : ; ",
"2 2 : $ : : @ X % v D D D v j j j j j j j 7 s x 4 2 % * 4 q k B j j j q < + ; 2 j j j j g f r r r r r r r r r r r r 4 + X + $ - : : : ; ",
"2 2 : $ : ; + X > B D D C j j j j j j j q ; 8 : ; ; ; 3 j r I H j j j q < + ; 2 j j j g r r r r r r r r r r r r r r 4 % X + # % : : : : ",
"2 2 ; $ : * o o 4 C D D n j j j j j j j g f t f t f f j j r ;. .j j j q < + ; 2 j j g r r r r r r r r r r r r r r r q - o o # $ ; : : : ",
"2 2 - $ ; % o o 4 N D S j j j j j j j j j j j j j j j j j r 5. .j j j q < + ; 2 g r r r r r r r r r r r r r r r r r q : o o # # - : : : ",
"2 2 * $ - $ o o 4 x M b j j j j j j j j j j j j j j j j j r { J j j j q < + ; : r r r r r r r r r r r r r r r r r r r : o o # # % : : : ",
"2 2 % $ * $ o o 3 x x a f g j j j j j j j j j j j j j j j r k C j j j q < + ; : r r r r r r r r r r r r r r r r r r q : o o @ # % : : : ",
"2 2 % $ % $ o + 2 l x r r r f g j j j j j j j j j j j j j r k C j j j q < + ; : r r r r r r r r r r r r r r r r r q 4 : O o @ # $ : : : ",
"2 2 % $ $ # o + 2 s l r r r r r r f g g g j j j j j g g g q k C j j j q < + ; : r r r r r r r r r r r r r r r r q 4 4 ; O o + # $ ; : : ",
"2 2 % $ $ # o O : 9 d r r r r r r r r r r r r r r r r r r 4 k C j j j q 2 + ; : r r r r r r r r r r r r r r r q 4 4 4 ; o o @ # # ; : : ",
"2 2 * $ $ # o o : 6 e r r r r r r r r r r r r r r r r r r 4 k C j j j q 2 + ; : r r r r r r r r r r r r r q 4 4 4 4 2 - o o # # # ; : : ",
"2 2 - $ $ $ o o : 3 7 r r r r r r r r r r r r r r r r r r 4 k C j j g 4 2 + ; : r r r r r r r r r r r r q 4 4 4 4 4 2 * o o # # # ; : : ",
": 2 ; $ $ $ O o - 3 3 q r r r r r r r r r r r r r r r r r 4 k C j j g 4 : + ; : r r r r r r r r r r r q 4 4 4 4 4 4 : % X O # # # ; : : ",
": : ; $ $ $ + X % 2 2 4 r r r r r r r r r r r r r r r r r 4 k C j j g 4 : + ; : r r r r r r r r r q 4 4 4 4 4 4 4 2 : # X + # # $ ; : : ",
"; : ; $ $ $ @ X @ 2 2 2 q r r r r r r r r r r r r r r r r 4 k C j j g 4 2 + ; : r r r r r r r q 4 4 4 4 4 4 4 4 4 : : + X + # # $ : : ; ",
"; : ; $ # $ # o o : 2 2 2 q r r r r r r r r r r r r r r r 4 k C j j g 4 2 + ; : r r r r r w q 4 4 4 4 4 4 4 4 4 2 : - o o @ # # % : : ; ",
"- : : % # # # o o - 2 2 2 4 r r r r r r r r r r r r r r r 4 k C j j g 4 2 + ; : r r r q q 4 4 4 4 4 4 4 4 4 4 4 : : % X o # # # % : : - ",
"% : : - # # # + X # 2 2 2 2 4 r r r r r r r r r r r r r r 4 k C j j g 4 : + ; : r q 0 4 4 4 4 4 4 4 4 4 4 4 4 : : : + X + # # # - : : % ",
"  ; : ; $ # # @ o o ; 2 2 2 2 4 r r r r r r r r r r r r r 4 k C j j g 4 2 + ; ; 4 4 4 4 4 4 4 4 4 4 4 4 4 4 2 : : - o o @ # # $ ; : ;   ",
"  - : : % # # # O X # : < 2 2 2 4 r r r r r r r r r r r r 4 k C j j f 4 2 + ; - 4 4 4 4 4 4 4 4 4 4 4 4 4 < : : : # X + # # # % : : -   ",
"  % : : - # # # + o o - : : : : 2 2 q r r r r r r r r r r 4 k C j j f 4 2 + ; - 4 4 4 4 4 4 4 4 4 4 4 4 : : : : - o o + # # # - : : %   ",
"    ; : ; $ # # # O X + : : : : : : : 2 q q q q q q q q q 2 k B j j r 4 2 + ; - 4 4 4 4 4 4 4 4 4 4 2 : : : : : + X + # # # $ : : ;     ",
"    * : : % # # # @ o o % : : : : : : : : 2 4 4 4 4 4 4 4 : k B j j r 4 > + ; ; 4 4 4 4 4 4 4 4 3 : : : : : : % o o @ # # # * : : *     ",
"      ; : ; $ # # # + o o - : : : : : : : : : 2 4 4 4 4 4 < k B j j w 2 2 + ; ; 4 4 4 4 4 4 2 : : : : : : : - o o + # # # $ ; : ;       ",
"      * : : * # # # # O X + ; : : : : : : : : : : < 2 4 4 : k n j j q 2 > + ; ; 4 4 4 2 2 : : : : : : : : ; + X O # # # # - : : *       ",
"        ; : ; $ # # # @ o X @ ; : : : : : : : : : : : : : - k n j j 4 4 > + ; * < : : : : : : : : : : : ; + X o # # # # % : : ;         ",
"        % : : - # # # # + o X @ ; : : : : : : : : : : : : - s n j g 4 4 2 + ; % : : : : : : : : : : : ; @ X o + # # # # - : : %         ",
"          - : : % # # # # + o X @ ; : : : : : : : : : : : - s v j r 4 4 : + ; % : : : : : : : : : : ; + X o + # # # # % : : -           ",
"            ; : ; $ # # # # + o X + - : : : : : : : : : : - p v f 4 4 4 % O ; % : : : : : : : : : - + X o + # # # # $ ; : ;             ",
"            % ; : - # # # # # + o X o % : : : : : : : : : - e g 4 4 4 : + + ; % : : : : : : : ; % o X o + # # # # # - : ; %             ",
"              % : : * # # # # # # O o o + * : : : : : : : - ; : : : ; % % % - % : : : : : : * + o o O # # # # # # % : : %               ",
"                % : : % # # # # # # + o X o @ * : : : : : ; * * % % * - - - % - : : : : * @ o X o + # # # # # # % : : %                 ",
"                  * : : % # # # # # # @ + o X o + % - : : : : : : : : : : : : : : - $ + o X o + @ # # # # # # % : : %                   ",
"                    % : : - $ # # # # # # @ + o X X o + # % % - - - ; ; - % % # + o X X o + @ # # # # # # # % : : %                     ",
"                      % ; : - $ # # # # # # # # + O o o X X o o o o o o o o X X o o O + # # # # # # # # # % : ; %                       ",
"                        % ; : ; % # # # # # # # # # # + + O o o o o o o o o O + + # # # # # # # # # # $ - : ; %                         ",
"                            - : : - % # # # # # # # # # # # # # # # # # # # # # # # # # # # # # # $ % ; : -                             ",
"                              % ; : : - % # # # # # # # # # # # # # # # # # # # # # # # # # # $ % ; : ; %                               ",
"                                  % ; : : - % $ # # # # # # # # # # # # # # # # # # # # # % - ; : ; %                                   ",
"                                      % ; : : ; - % % $ # # # # # # # # # # # # $ $ % - ; : : ; %                                       ",
"                                          % - ; : : : ; ; - % % % % % % % % - - ; ; : : ; - %                                           ",
"                                                % - ; ; : : : : : : : : : : : : ; ; - %                                                 ",
"                                                        % % * - - - - - * * % %                                                         "
};
