/* XPM */
static char *xpm_[] = {
/* columns rows colors chars-per-pixel */
"144 24 8 1 ",
"  c black",
". c #222A5C",
"X c #2C5B6D",
"o c #158968",
"O c #46C657",
"+ c #839740",
"@ c #C9EC85",
"# c None",
/* pixels */
"################################################################################################################################################",
"################################################################################################################################################",
"################################################################################################################################################",
"###########################################################   ####################   ###########################################################",
"################################   ######################  OO ##################  OO ###########################################################",
"###########   ################## OO  #################   OOOO ###############   OOOO ##################  #######################################",
"########### OO  ################ OOOO   ############## OOOOOO ############### OOOOOOO ################ OO ######################################",
"########### OOOO   ############# OOOOOO ############## OOOO@@ ################ OOO@@@ ############### OOOO  ############################  ######",
"########## OOOOOOO ############# @@OOOO ############## @@@@@@@ ############### X@@@@@@ ############# OOOOOO@  ################  #####   OO #####",
"######### @@@OOOO ############# @@@@@@@ ############### @@@OOO ################ +@@@@OO   ######### XOOOO@@@@@     ########## OO     OOOOO #####",
"######## @@@@@@X. ############# OOO@@@ ################ OOOOOO ################ ++@OOOOOO ######### XXOO@@@@@@OOOO ########## OOOO@@@OOOOO #####",
"####    O@@@@@+. ############## OOOOOO ################ OOOOOo ################# +XOOOOo ########## XXX@@@@@OOOOOo ######### OOOOO@@@OOOOO #####",
"#### OOOOOO@@++ ############### oOOOOO ################ OOOoX. ################# +XOOoX. ###########  X.+@@@OOOoX.  ######## OOOO@@@@OOOOo #####",
"##### oOOOOOX++ ############### .XoOOO ################ X..Xooo ################# ...Xooo ############  ++XOXOOXooo ######## OOOO@@@OOOOO ######",
"##### .XoOOX.+ ############### oooX..X ################ ooooooo ################# Xoooooo ##############  +....Xoo ######### .XOO@@@XX..o ######",
"#### oooX...X ################ ooooooo ################ ooo    ################### ooo   ################# XXoooo ########## ...X.+++.Xoo ######",
"#### ooooooX ##################    ooo #################   ########################   #####################  ooo ########### XXXXX       #######",
"#####   ooo #######################   #######################################################################   ############ XX   ##############",
"########   #################################################################################################################   #################",
"################################################################################################################################################",
"################################################################################################################################################",
"################################################################################################################################################",
"################################################################################################################################################",
"################################################################################################################################################"
};
