/* XPM */
static char *xpm_[] = {
/* columns rows colors chars-per-pixel */
"32 32 3 1 ",
"  c #321933",
". c #3A4556",
"X c #4D5A67",
/* pixels */
"                                ",
"..  XXXXXXXXXXXXXXXXXXXXXXXX  ..",
".. XXXXXXXXXXXXXXXXXXXXXXXXXX ..",
"  XXXXXXX              XXXXXXX  ",
" XXXXXXX    .XXXXXX.    XXXXXXX ",
".XXXXXX  XX .XXXXXX. XX  XXXXXX.",
"..XXXX  XXX          XXX  XXXX..",
"XXXX.  XXXX .XXXXXX. XXXX  .XXXX",
"XXXXX XXXXX XXXXXXXX XXXXX XXXXX",
"XXXXX XXXXX.XXXXXXXX.XXXXX XXXXX",
".XXXX .XXX. XXXXXXXX .XXX. XXXX.",
".....   ..  XXXXXXXX  ..   .....",
"XX.XX .XXXX XXXXXXXX XXXX. XX.XX",
"XX.XX XXXXX  .XXXX.  XXXXX XX.XX",
"XX... XXXXX XXXXXXXX XXXXX ...XX",
"XX.XX XXXXX XXXXXXXX XXXXX XX.XX",
"...XX XXXX. XXXXXXXX .XXXX XX...",
"XX... .XXXX XXXXXXXX XXXX. ...XX",
"..... XXXXX ........ XXXXX .....",
"..... XXXX.   .  .   .XXXX .....",
"..... ..... ........ ..... .....",
"..... ..... ........ ..... .....",
"..... ..... ........ ..... .....",
"..... ..... ........ ..... .....",
"..... ..... ........ ..... .....",
"..... .....          ..... .....",
"..... ..... XX XX XX ..... .....",
"..... ..... XX XX XX ..... .....",
".....                      .....",
"................................",
"................................",
"                                "
};
